# xmcd
#
# Track frame offsets: 
#        150
#        13667
#        36047
#        49130
#        74082
#        98477
#        117997
#        141095
#        162527
#        171765
#        194897
#        212372
#        226055
#        249867
#        273975
#        289637
#        309922
#        322070
#        335810
#
# Disc length: 4639 seconds
#
# Revision: 6
# Processed by: cddbd v1.5.2PL0 Copyright (c) Steve Scherf et al.
# Submitted via: ExactAudioCopyFreeDBPlugin 1.0
#
DISCID=17121d13
DTITLE=John Lee Hooker - The best of John Lee Hooker
DYEAR=1994
DGENRE=Blues
TTITLE0=One bourbon, one scotch, one beer
TTITLE1=Never get out of these blues alive
TTITLE2=Mr Lucky
TTITLE3=I'm bad like Jesse James
TTITLE4=Bluebird
TTITLE5=Shake it baby
TTITLE6=It serves you right to suffer
TTITLE7=Bang bang bang bang
TTITLE8=Think twice before you go
TTITLE9=Tantilizing with the blues
TTITLE10=Peace loving man
TTITLE11=Stella Mae
TTITLE12=I put my trust in you
TTITLE13=The waterfront
TTITLE14=I can't quit you
TTITLE15=This land is nobody's land
TTITLE16=Mad man blues
TTITLE17=Apologize
TTITLE18=I'm in mood
EXTD=
EXTT0=
EXTT1=
EXTT2=
EXTT3=
EXTT4=
EXTT5=
EXTT6=
EXTT7=
EXTT8=
EXTT9=
EXTT10=
EXTT11=
EXTT12=
EXTT13=
EXTT14=
EXTT15=
EXTT16=
EXTT17=
EXTT18=
PLAYORDER=
